<svg width="614.4" height="460.8" viewBox="0 0 460.8 345.6" xmlns="http://www.w3.org/2000/svg" xmlns:xlink="http://www.w3.org/1999/xlink" stroke-linejoin="round" overflow="hidden"><defs></defs><defs><clipPath id="p541c73e78c"><rect x="57.6" y="41.472" width="357.12" height="266.112"/></clipPath></defs><g id="figure_1"><g id="patch_1"><path d="M0 345.6 460.8 345.6 460.8 0 0 0Z" fill="#FFFFFF"/></g><g id="axes_1"><g id="patch_2"><path d="M57.6 307.584 414.72 307.584 414.72 41.472 57.6 41.472Z" fill="#FFFFFF"/></g><g id="matplotlib.axis_1"><g id="xtick_1"><g id="line2d_1"><defs><path d="M0 0 0 3.5" id="m8f679d848e" stroke="#000000" stroke-width="0.8"/></defs><g><use x="73.8327" y="307.584" width="100%" height="100%" xlink:href="#m8f679d848e" stroke="#000000" stroke-width="0.8"></use></g></g><g id="text_1"><g transform="matrix(0.1 0 0 -0.1 70.6515 322.182)"><defs><path d="M2034 4250C1709.33 4250 1465 4090 1301 3770 1137.67 3450.67 1056 2970 1056 2328 1056 1688.67 1137.67 1209 1301 889 1465 569 1709.33 409 2034 409 2361.33 409 2606.67 569 2770 889 2934 1209 3016 1688.67 3016 2328 3016 2970 2934 3450.67 2770 3770 2606.67 4090 2361.33 4250 2034 4250ZM2034 4750C2557.33 4750 2957 4543 3233 4129 3509 3715.67 3647 3115.33 3647 2328 3647 1542.67 3509 943 3233 529 2957 115.667 2557.33-91 2034-91 1511.33-91 1112 115.667 836 529 560 943 422 1542.67 422 2328 422 3115.33 560 3715.67 836 4129 1112 4543 1511.33 4750 2034 4750Z" id="DejaVuSans-30" transform="scale(0.015625 0.015625)"/></defs><use width="100%" height="100%" xlink:href="#DejaVuSans-30"></use></g></g></g><g id="xtick_2"><g id="line2d_2"><g><use x="132.329" y="307.584" width="100%" height="100%" xlink:href="#m8f679d848e" stroke="#000000" stroke-width="0.8"></use></g></g><g id="text_2"><g transform="matrix(0.1 0 0 -0.1 125.967 322.182)"><defs><path d="M1228 531 3431 531 3431 0 469 0 469 531C708.333 779 1034.67 1111.67 1448 1529 1862 1947 2122 2216.67 2228 2338 2430 2564.67 2571 2756.67 2651 2914 2731.67 3071.33 2772 3226 2772 3378 2772 3626 2685 3828 2511 3984 2337 4140.67 2110.33 4219 1831 4219 1633 4219 1424 4184.67 1204 4116 984.667 4047.33 750 3943 500 3803L500 4441C754 4543 991.333 4620 1212 4672 1433.33 4724 1635.67 4750 1819 4750 2302.33 4750 2687.67 4629 2975 4387 3262.33 4145.67 3406 3823 3406 3419 3406 3227 3370 3045 3298 2873 3226.67 2701.67 3096 2499.33 2906 2266 2854 2205.33 2688.33 2030.67 2409 1742 2130.33 1453.33 1736.67 1049.67 1228 531Z" id="DejaVuSans-32" transform="scale(0.015625 0.015625)"/></defs><use width="100%" height="100%" xlink:href="#DejaVuSans-32"></use><use x="63.623" width="100%" height="100%" xlink:href="#DejaVuSans-30"></use></g></g></g><g id="xtick_3"><g id="line2d_3"><g><use x="190.825" y="307.584" width="100%" height="100%" xlink:href="#m8f679d848e" stroke="#000000" stroke-width="0.8"></use></g></g><g id="text_3"><g transform="matrix(0.1 0 0 -0.1 184.463 322.182)"><defs><path d="M2419 4116 825 1625 2419 1625 2419 4116ZM2253 4666 3047 4666 3047 1625 3713 1625 3713 1100 3047 1100 3047 0 2419 0 2419 1100 313 1100 313 1709 2253 4666Z" id="DejaVuSans-34" transform="scale(0.015625 0.015625)"/></defs><use width="100%" height="100%" xlink:href="#DejaVuSans-34"></use><use x="63.623" width="100%" height="100%" xlink:href="#DejaVuSans-30"></use></g></g></g><g id="xtick_4"><g id="line2d_4"><g><use x="249.322" y="307.584" width="100%" height="100%" xlink:href="#m8f679d848e" stroke="#000000" stroke-width="0.8"></use></g></g><g id="text_4"><g transform="matrix(0.1 0 0 -0.1 242.959 322.182)"><defs><path d="M2113 2584C1829.67 2584 1605 2487 1439 2293 1273.67 2099.67 1191 1834.33 1191 1497 1191 1161.67 1273.67 896.333 1439 701 1605 506.333 1829.67 409 2113 409 2396.33 409 2620.67 506.333 2786 701 2951.33 896.333 3034 1161.67 3034 1497 3034 1834.33 2951.33 2099.67 2786 2293 2620.67 2487 2396.33 2584 2113 2584ZM3366 4563 3366 3988C3207.33 4062.67 3047.33 4119.67 2886 4159 2724.67 4199 2564.67 4219 2406 4219 1989.33 4219 1671 4078.33 1451 3797 1231.67 3515.67 1106.33 3090.67 1075 2522 1197.67 2703.33 1351.67 2842.33 1537 2939 1723 3035.67 1927.33 3084 2150 3084 2618.67 3084 2989 2941.67 3261 2657 3533 2373 3669 1986.33 3669 1497 3669 1017.67 3527.33 633 3244 343 2960.67 53.6667 2583.67-91 2113-91 1573-91 1160.33 115.667 875 529 589.667 943 447 1542.67 447 2328 447 3065.33 622 3653.33 972 4092 1322 4530.67 1791.67 4750 2381 4750 2539.67 4750 2699.67 4734.33 2861 4703 3022.33 4671.67 3190.67 4625 3366 4563Z" id="DejaVuSans-36" transform="scale(0.015625 0.015625)"/></defs><use width="100%" height="100%" xlink:href="#DejaVuSans-36"></use><use x="63.623" width="100%" height="100%" xlink:href="#DejaVuSans-30"></use></g></g></g><g id="xtick_5"><g id="line2d_5"><g><use x="307.818" y="307.584" width="100%" height="100%" xlink:href="#m8f679d848e" stroke="#000000" stroke-width="0.8"></use></g></g><g id="text_5"><g transform="matrix(0.1 0 0 -0.1 301.455 322.182)"><defs><path d="M2034 2216C1734 2216 1498 2135.67 1326 1975 1154.67 1814.33 1069 1593.67 1069 1313 1069 1031.67 1154.67 810.667 1326 650 1498 489.333 1734 409 2034 409 2334 409 2570.33 489.667 2743 651 2916.33 813 3003 1033.67 3003 1313 3003 1593.67 2917 1814.33 2745 1975 2573.67 2135.67 2336.67 2216 2034 2216ZM1403 2484C1132.33 2550.67 921.333 2676.67 770 2862 619.333 3048 544 3274.33 544 3541 544 3913.67 676.667 4208.33 942 4425 1208 4641.67 1572 4750 2034 4750 2498.67 4750 2863.33 4641.67 3128 4425 3392.67 4208.33 3525 3913.67 3525 3541 3525 3274.33 3449.33 3048 3298 2862 3147.33 2676.67 2937.67 2550.67 2669 2484 2973 2413.33 3209.67 2274.67 3379 2068 3549 1862 3634 1610.33 3634 1313 3634 860.333 3496 513 3220 271 2944 29.6667 2548.67-91 2034-91 1520-91 1124.67 29.6667 848 271 572 513 434 860.333 434 1313 434 1610.33 519.333 1862 690 2068 861.333 2274.67 1099 2413.33 1403 2484ZM1172 3481C1172 3239.67 1247.33 3051.33 1398 2916 1549.33 2780.67 1761.33 2713 2034 2713 2305.33 2713 2517.33 2780.67 2670 2916 2823.33 3051.33 2900 3239.67 2900 3481 2900 3723 2823.33 3911.67 2670 4047 2517.33 4182.33 2305.33 4250 2034 4250 1761.33 4250 1549.33 4182.33 1398 4047 1247.33 3911.67 1172 3723 1172 3481Z" id="DejaVuSans-38" transform="scale(0.015625 0.015625)"/></defs><use width="100%" height="100%" xlink:href="#DejaVuSans-38"></use><use x="63.623" width="100%" height="100%" xlink:href="#DejaVuSans-30"></use></g></g></g><g id="xtick_6"><g id="line2d_6"><g><use x="366.314" y="307.584" width="100%" height="100%" xlink:href="#m8f679d848e" stroke="#000000" stroke-width="0.8"></use></g></g><g id="text_6"><g transform="matrix(0.1 0 0 -0.1 356.771 322.182)"><defs><path d="M794 531 1825 531 1825 4091 703 3866 703 4441 1819 4666 2450 4666 2450 531 3481 531 3481 0 794 0 794 531Z" id="DejaVuSans-31" transform="scale(0.015625 0.015625)"/></defs><use width="100%" height="100%" xlink:href="#DejaVuSans-31"></use><use x="63.623" width="100%" height="100%" xlink:href="#DejaVuSans-30"></use><use x="127.246" width="100%" height="100%" xlink:href="#DejaVuSans-30"></use></g></g></g><g id="text_7"><g transform="matrix(0.1 0 0 -0.1 211.444 335.861)"><defs><path d="M1172 4494 1172 3500 2356 3500 2356 3053 1172 3053 1172 1153C1172 867.667 1211 684.333 1289 603 1367 521.667 1526 481 1766 481L2356 481 2356 0 1766 0C1322 0 1015.67 82.6667 847 248 678.333 414 594 715.667 594 1153L594 3053 172 3053 172 3500 594 3500 594 4494 1172 4494Z" id="DejaVuSans-74" transform="scale(0.015625 0.015625)"/><path d="M603 3500 1178 3500 1178 0 603 0 603 3500ZM603 4863 1178 4863 1178 4134 603 4134 603 4863Z" id="DejaVuSans-69" transform="scale(0.015625 0.015625)"/><path d="M3328 2828C3472 3086.67 3644 3277.33 3844 3400 4044 3522.67 4279.33 3584 4550 3584 4914.67 3584 5196 3456.33 5394 3201 5592 2946.33 5691 2583.67 5691 2113L5691 0 5113 0 5113 2094C5113 2429.33 5053.33 2678 4934 2840 4815.33 3002.67 4634.33 3084 4391 3084 4093 3084 3857.33 2985 3684 2787 3511.33 2589.67 3425 2320 3425 1978L3425 0 2847 0 2847 2094C2847 2431.33 2787.67 2680.67 2669 2842 2550.33 3003.33 2367 3084 2119 3084 1825 3084 1591.33 2984.67 1418 2786 1245.33 2587.33 1159 2318 1159 1978L1159 0 581 0 581 3500 1159 3500 1159 2956C1290.33 3170.67 1447.67 3329 1631 3431 1814.33 3533 2032 3584 2284 3584 2538.67 3584 2755 3519.33 2933 3390 3111 3261.33 3242.67 3074 3328 2828Z" id="DejaVuSans-6d" transform="scale(0.015625 0.015625)"/><path d="M3597 1894 3597 1613 953 1613C978.333 1217 1097.67 915.333 1311 708 1524.33 500.667 1821.67 397 2203 397 2423.67 397 2637.67 424 2845 478 3052.33 532 3258.33 613.333 3463 722L3463 178C3256.33 90.6667 3044.67 24 2828-22 2611.33-68 2391.67-91 2169-91 1610.33-91 1168 71.3333 842 396 516 721.333 353 1161.33 353 1716 353 2288.67 507.667 2743 817 3079 1126.33 3415.67 1543.67 3584 2069 3584 2539.67 3584 2912 3432.33 3186 3129 3460 2826.33 3597 2414.67 3597 1894ZM3022 2063C3018 2377 2930 2627.67 2758 2815 2586 3003 2358.33 3097 2075 3097 1754.33 3097 1497.67 3006.33 1305 2825 1112.33 2643.67 1001.33 2388.33 972 2059L3022 2063Z" id="DejaVuSans-65" transform="scale(0.015625 0.015625)"/><path d="M2834 3397 2834 2853C2672 2936.33 2503.33 2998.67 2328 3040 2153.33 3082 1972 3103 1784 3103 1498.67 3103 1284.67 3059.33 1142 2972 999.333 2884.67 928 2753.33 928 2578 928 2444.67 979 2340 1081 2264 1183 2188 1388.33 2115.67 1697 2047L1894 2003C2302 1915.67 2592 1792.33 2764 1633 2936 1473.67 3022 1251.33 3022 966 3022 640.667 2893.33 383 2636 193 2378.67 3.66667 2025-91 1575-91 1387.67-91 1192.33-72.6667 989-36 785.667 0.666667 571.667 55.3333 347 128L347 722C559.667 611.333 769 528.333 975 473 1181 418.333 1385.33 391 1588 391 1858.67 391 2066.67 437.333 2212 530 2358 622.667 2431 753.333 2431 922 2431 1078 2378.33 1197.67 2273 1281 2168.33 1364.33 1937.67 1444.67 1581 1522L1381 1569C1025 1643.67 767.667 1758.67 609 1914 451 2069.33 372 2282.33 372 2553 372 2882.33 488.667 3136.33 722 3315 955.333 3494.33 1286.67 3584 1716 3584 1928 3584 2127.67 3568.33 2315 3537 2503 3506.33 2676 3459.67 2834 3397Z" id="DejaVuSans-73" transform="scale(0.015625 0.015625)"/><path d="M1159 525 1159-1331 581-1331 581 3500 1159 3500 1159 2969C1280.33 3177 1433 3331.33 1617 3432 1801.67 3533.33 2022 3584 2278 3584 2703.33 3584 3048.67 3415.33 3314 3078 3580 2740.67 3713 2297 3713 1747 3713 1197 3580 753 3314 415 3048.67 77.6667 2703.33-91 2278-91 2022-91 1801.67-40.3333 1617 61 1433 162.333 1280.33 317 1159 525ZM3116 1747C3116 2169.67 3029 2501.33 2855 2742 2681 2982.67 2442 3103 2138 3103 1833.33 3103 1594 2982.67 1420 2742 1246 2501.33 1159 2169.67 1159 1747 1159 1324.33 1246 992.667 1420 752 1594 511.333 1833.33 391 2138 391 2442 391 2681 511.333 2855 752 3029 992.667 3116 1324.33 3116 1747Z" id="DejaVuSans-70" transform="scale(0.015625 0.015625)"/></defs><use width="100%" height="100%" xlink:href="#DejaVuSans-74"></use><use x="39.209" width="100%" height="100%" xlink:href="#DejaVuSans-69"></use><use x="66.9922" width="100%" height="100%" xlink:href="#DejaVuSans-6d"></use><use x="164.404" width="100%" height="100%" xlink:href="#DejaVuSans-65"></use><use x="225.928" width="100%" height="100%" xlink:href="#DejaVuSans-73"></use><use x="278.027" width="100%" height="100%" xlink:href="#DejaVuSans-74"></use><use x="317.236" width="100%" height="100%" xlink:href="#DejaVuSans-65"></use><use x="378.76" width="100%" height="100%" xlink:href="#DejaVuSans-70"></use><use x="442.236" width="100%" height="100%" xlink:href="#DejaVuSans-73"></use></g></g></g><g id="matplotlib.axis_2"><g id="ytick_1"><g id="line2d_7"><defs><path d="M0 0-3.5 0" id="m9d6ce7e0e8" stroke="#000000" stroke-width="0.8"/></defs><g><use x="57.6" y="295.488" width="100%" height="100%" xlink:href="#m9d6ce7e0e8" stroke="#000000" stroke-width="0.8"></use></g></g><g id="text_8"><g transform="matrix(0.1 0 0 -0.1 44.2375 299.287)"><use width="100%" height="100%" xlink:href="#DejaVuSans-30"></use></g></g></g><g id="ytick_2"><g id="line2d_8"><g><use x="57.6" y="255.168" width="100%" height="100%" xlink:href="#m9d6ce7e0e8" stroke="#000000" stroke-width="0.8"></use></g></g><g id="text_9"><g transform="matrix(0.1 0 0 -0.1 44.2375 258.967)"><use width="100%" height="100%" xlink:href="#DejaVuSans-31"></use></g></g></g><g id="ytick_3"><g id="line2d_9"><g><use x="57.6" y="214.848" width="100%" height="100%" xlink:href="#m9d6ce7e0e8" stroke="#000000" stroke-width="0.8"></use></g></g><g id="text_10"><g transform="matrix(0.1 0 0 -0.1 44.2375 218.647)"><use width="100%" height="100%" xlink:href="#DejaVuSans-32"></use></g></g></g><g id="ytick_4"><g id="line2d_10"><g><use x="57.6" y="174.528" width="100%" height="100%" xlink:href="#m9d6ce7e0e8" stroke="#000000" stroke-width="0.8"></use></g></g><g id="text_11"><g transform="matrix(0.1 0 0 -0.1 44.2375 178.327)"><defs><path d="M2597 2516C2899 2451.33 3134.67 2316.67 3304 2112 3474 1908 3559 1656 3559 1356 3559 896 3400.67 539.667 3084 287 2767.33 35 2317.33-91 1734-91 1538.67-91 1337.33-71.6667 1130-33 922.667 5.66667 708.667 63.6667 488 141L488 750C662.667 648 854 571 1062 519 1270.67 467 1488.67 441 1716 441 2111.33 441 2412.67 519 2620 675 2827.33 831 2931 1058 2931 1356 2931 1631.33 2834.67 1846.33 2642 2001 2449.33 2156.33 2181.33 2234 1838 2234L1294 2234 1294 2753 1863 2753C2173 2753 2410.33 2815 2575 2939 2739.67 3063 2822 3241.67 2822 3475 2822 3714.33 2737 3898 2567 4026 2397.67 4154.67 2154.67 4219 1838 4219 1664.67 4219 1479 4200 1281 4162 1083 4124.67 865.333 4066.67 628 3988L628 4550C868 4616.67 1092.67 4666.67 1302 4700 1511.33 4733.33 1708.67 4750 1894 4750 2373.33 4750 2752.33 4641 3031 4423 3310.33 4205.67 3450 3911.67 3450 3541 3450 3282.33 3376 3064 3228 2886 3080 2708 2869.67 2584.67 2597 2516Z" id="DejaVuSans-33" transform="scale(0.015625 0.015625)"/></defs><use width="100%" height="100%" xlink:href="#DejaVuSans-33"></use></g></g></g><g id="ytick_5"><g id="line2d_11"><g><use x="57.6" y="134.208" width="100%" height="100%" xlink:href="#m9d6ce7e0e8" stroke="#000000" stroke-width="0.8"></use></g></g><g id="text_12"><g transform="matrix(0.1 0 0 -0.1 44.2375 138.007)"><use width="100%" height="100%" xlink:href="#DejaVuSans-34"></use></g></g></g><g id="ytick_6"><g id="line2d_12"><g><use x="57.6" y="93.888" width="100%" height="100%" xlink:href="#m9d6ce7e0e8" stroke="#000000" stroke-width="0.8"></use></g></g><g id="text_13"><g transform="matrix(0.1 0 0 -0.1 44.2375 97.6872)"><defs><path d="M691 4666 3169 4666 3169 4134 1269 4134 1269 2991C1360.33 3022.33 1451.67 3045.67 1543 3061 1635 3076.33 1727 3084 1819 3084 2339.67 3084 2752 2941.33 3056 2656 3360.67 2370.67 3513 1984.33 3513 1497 3513 995 3356.67 604.667 3044 326 2731.33 48 2290.67-91 1722-91 1526-91 1326.33-74.3333 1123-41 920.333-7.66667 710.667 42.3333 494 109L494 744C681.333 642 875 566 1075 516 1275 466 1486.33 441 1709 441 2069.67 441 2355 535.667 2565 725 2775.67 914.333 2881 1171.67 2881 1497 2881 1821.67 2775.67 2078.67 2565 2268 2355 2458 2069.67 2553 1709 2553 1540.33 2553 1372 2534.33 1204 2497 1036.67 2459.67 865.667 2401.33 691 2322L691 4666Z" id="DejaVuSans-35" transform="scale(0.015625 0.015625)"/></defs><use width="100%" height="100%" xlink:href="#DejaVuSans-35"></use></g></g></g><g id="ytick_7"><g id="line2d_13"><g><use x="57.6" y="53.568" width="100%" height="100%" xlink:href="#m9d6ce7e0e8" stroke="#000000" stroke-width="0.8"></use></g></g><g id="text_14"><g transform="matrix(0.1 0 0 -0.1 44.2375 57.3672)"><use width="100%" height="100%" xlink:href="#DejaVuSans-36"></use></g></g></g><g id="text_15"><g transform="matrix(6.12323e-18 -0.1 -0.1 -6.12323e-18 38.1578 210.037)"><defs><path d="M2906 2969 2906 4863 3481 4863 3481 0 2906 0 2906 525C2785.33 317 2632.67 162.333 2448 61 2264-40.3333 2042.67-91 1784-91 1361.33-91 1017 77.6667 751 415 485.667 753 353 1197 353 1747 353 2297 485.667 2740.67 751 3078 1017 3415.33 1361.33 3584 1784 3584 2042.67 3584 2264 3533.33 2448 3432 2632.67 3331.33 2785.33 3177 2906 2969ZM947 1747C947 1324.33 1034 992.667 1208 752 1382 511.333 1621 391 1925 391 2229 391 2468.33 511.333 2643 752 2818.33 992.667 2906 1324.33 2906 1747 2906 2169.67 2818.33 2501.33 2643 2742 2468.33 2982.67 2229 3103 1925 3103 1621 3103 1382 2982.67 1208 2742 1034 2501.33 947 2169.67 947 1747Z" id="DejaVuSans-64" transform="scale(0.015625 0.015625)"/><path d="M2631 2963C2566.33 3000.33 2496 3027.67 2420 3045 2344 3063 2260.33 3072 2169 3072 1843.67 3072 1594 2966.33 1420 2755 1246 2543.67 1159 2240 1159 1844L1159 0 581 0 581 3500 1159 3500 1159 2956C1280.33 3168.67 1437.67 3326.33 1631 3429 1825 3532.33 2060.67 3584 2338 3584 2377.33 3584 2421 3581.33 2469 3576 2517 3571.33 2570 3563.67 2628 3553L2631 2963Z" id="DejaVuSans-72" transform="scale(0.015625 0.015625)"/><path d="M2375 4863 2375 4384 1825 4384C1619 4384 1475.67 4342.33 1395 4259 1315 4175.67 1275 4025.67 1275 3809L1275 3500 2222 3500 2222 3053 1275 3053 1275 0 697 0 697 3053 147 3053 147 3500 697 3500 697 3744C697 4133.33 787.667 4417 969 4595 1150.33 4773.67 1437.67 4863 1831 4863L2375 4863Z" id="DejaVuSans-66" transform="scale(0.015625 0.015625)"/><path d="" id="DejaVuSans-20" transform="scale(0.015625 0.015625)"/><path d="M3513 2113 3513 0 2938 0 2938 2094C2938 2425.33 2873.33 2673 2744 2837 2614.67 3001.67 2421 3084 2163 3084 1852.33 3084 1607.33 2985 1428 2787 1248.67 2589.67 1159 2320 1159 1978L1159 0 581 0 581 3500 1159 3500 1159 2956C1297 3166.67 1459 3324 1645 3428 1831.67 3532 2047 3584 2291 3584 2693 3584 2997 3459.67 3203 3211 3409.67 2962.33 3513 2596.33 3513 2113Z" id="DejaVuSans-6e" transform="scale(0.015625 0.015625)"/><path d="M2906 1791C2906 2207.67 2820 2530.33 2648 2759 2476.67 2988.33 2235.67 3103 1925 3103 1617 3103 1377 2988.33 1205 2759 1033 2530.33 947 2207.67 947 1791 947 1376.33 1033 1054.33 1205 825 1377 595.667 1617 481 1925 481 2235.67 481 2476.67 595.667 2648 825 2820 1054.33 2906 1376.33 2906 1791ZM3481 434C3481-161.333 3348.67-604.333 3084-895 2820-1185.67 2415-1331 1869-1331 1667-1331 1476.33-1316 1297-1286 1117.67-1256 943.667-1209.67 775-1147L775-588C943.667-679.333 1110.33-746.667 1275-790 1439.67-834 1607.33-856 1778-856 2155.33-856 2437.67-757.667 2625-561 2812.33-364.333 2906-67 2906 331L2906 616C2787.33 409.333 2635.33 255 2450 153 2264.67 51 2042.67 0 1784 0 1355.33 0 1009.67 163.333 747 490 484.333 817.333 353 1251 353 1791 353 2332.33 484.333 2766.33 747 3093 1009.67 3420.33 1355.33 3584 1784 3584 2042.67 3584 2264.67 3533 2450 3431 2635.33 3329 2787.33 3175 2906 2969L2906 3500 3481 3500 3481 434Z" id="DejaVuSans-67" transform="scale(0.015625 0.015625)"/></defs><use width="100%" height="100%" xlink:href="#DejaVuSans-64"></use><use x="63.4766" width="100%" height="100%" xlink:href="#DejaVuSans-72"></use><use x="104.59" width="100%" height="100%" xlink:href="#DejaVuSans-69"></use><use x="132.373" width="100%" height="100%" xlink:href="#DejaVuSans-66"></use><use x="165.828" width="100%" height="100%" xlink:href="#DejaVuSans-74"></use><use x="205.037" width="100%" height="100%" xlink:href="#DejaVuSans-20"></use><use x="236.824" width="100%" height="100%" xlink:href="#DejaVuSans-69"></use><use x="264.607" width="100%" height="100%" xlink:href="#DejaVuSans-6e"></use><use x="327.986" width="100%" height="100%" xlink:href="#DejaVuSans-20"></use><use x="359.773" width="100%" height="100%" xlink:href="#DejaVuSans-64"></use><use x="423.25" width="100%" height="100%" xlink:href="#DejaVuSans-65"></use><use x="484.773" width="100%" height="100%" xlink:href="#DejaVuSans-67"></use><use x="548.25" width="100%" height="100%" xlink:href="#DejaVuSans-72"></use><use x="587.113" width="100%" height="100%" xlink:href="#DejaVuSans-65"></use><use x="648.637" width="100%" height="100%" xlink:href="#DejaVuSans-65"></use></g></g></g><g id="line2d_14"><path d="M73.8327 295.488 76.7575 295.488 79.6824 295.488 82.6072 295.488 85.532 295.488 88.4568 295.488 91.3816 295.488 94.3064 295.488 97.2313 295.488 100.156 295.488 103.081 295.488 106.006 53.568 108.931 53.568 111.855 53.568 114.78 53.568 117.705 53.568 120.63 53.568 123.555 53.568 126.479 53.568 129.404 53.568 132.329 53.568 135.254 53.568 138.179 53.568 141.103 53.568 144.028 53.568 146.953 53.568 149.878 53.568 152.803 53.568 155.728 53.568 158.652 53.568 161.577 53.568 164.502 53.568 167.427 53.568 170.352 53.568 173.276 53.568 176.201 53.568 179.126 53.568 182.051 53.568 184.976 53.568 187.901 53.568 190.825 53.568 193.75 53.568 196.675 53.568 199.6 53.568 202.525 53.568 205.449 53.568 208.374 53.568 211.299 53.568 214.224 53.568 217.149 53.568 220.074 53.568 222.998 53.568 225.923 53.568 228.848 53.568 231.773 53.568 234.698 53.568 237.622 53.568 240.547 53.568 243.472 53.568 246.397 53.568 249.322 53.568 252.246 53.568 255.171 53.568 258.096 53.568 261.021 53.568 263.946 53.568 266.871 53.568 269.795 53.568 272.72 53.568 275.645 53.568 278.57 53.568 281.495 53.568 284.419 53.568 287.344 53.568 290.269 53.568 293.194 53.568 296.119 53.568 299.044 53.568 301.968 53.568 304.893 53.568 307.818 53.568 310.743 53.568 313.668 53.568 316.592 53.568 319.517 53.568 322.442 53.568 325.367 53.568 328.292 53.568 331.217 53.568 334.141 53.568 337.066 53.568 339.991 53.568 342.916 53.568 345.841 53.568 348.765 53.568 351.69 53.568 354.615 53.568 357.54 53.568 360.465 53.568 363.389 53.568 366.314 53.568 369.239 53.568 372.164 53.568 375.089 53.568 378.014 53.568 380.938 53.568 383.863 53.568 386.788 53.568 389.713 53.568 392.638 53.568 395.562 53.568 398.487 53.568" stroke="#1F77B4" stroke-width="1.5" stroke-linecap="square" fill="none" clip-path="url(#p541c73e78c)"/></g><g id="patch_3"><path d="M57.6 307.584 57.6 41.472" stroke="#000000" stroke-width="0.8" stroke-linecap="square" stroke-linejoin="miter" fill="none"/></g><g id="patch_4"><path d="M414.72 307.584 414.72 41.472" stroke="#000000" stroke-width="0.8" stroke-linecap="square" stroke-linejoin="miter" fill="none"/></g><g id="patch_5"><path d="M57.6 307.584 414.72 307.584" stroke="#000000" stroke-width="0.8" stroke-linecap="square" stroke-linejoin="miter" fill="none"/></g><g id="patch_6"><path d="M57.6 41.472 414.72 41.472" stroke="#000000" stroke-width="0.8" stroke-linecap="square" stroke-linejoin="miter" fill="none"/></g><g id="text_16"><g transform="matrix(0.12 0 0 -0.12 204.25 35.472)"><defs><path d="M2194 1759C1729.33 1759 1407.33 1706 1228 1600 1048.67 1494 959 1312.67 959 1056 959 852 1026.33 690 1161 570 1295.67 450.667 1478.33 391 1709 391 2028.33 391 2284.33 504 2477 730 2669.67 956 2766 1256.33 2766 1631L2766 1759 2194 1759ZM3341 1997 3341 0 2766 0 2766 531C2634.67 319 2471 162.333 2275 61 2079-40.3333 1839.33-91 1556-91 1198-91 913 9.66667 701 211 489.667 412.333 384 681.667 384 1019 384 1412.33 515.667 1709 779 1909 1043 2109 1436.33 2209 1959 2209L2766 2209 2766 2266C2766 2530.67 2679 2735.33 2505 2880 2331 3024.67 2086.67 3097 1772 3097 1572 3097 1377 3073 1187 3025 997.667 2977 815.667 2905 641 2809L641 3341C851 3422.33 1055 3483 1253 3523 1451 3563.67 1643.67 3584 1831 3584 2337.67 3584 2716 3452.67 2966 3190 3216 2928 3341 2530.33 3341 1997Z" id="DejaVuSans-61" transform="scale(0.015625 0.015625)"/><path d="M603 4863 1178 4863 1178 0 603 0 603 4863Z" id="DejaVuSans-6c" transform="scale(0.015625 0.015625)"/><path d="M3513 2113 3513 0 2938 0 2938 2094C2938 2425.33 2873.33 2673 2744 2837 2614.67 3001.67 2421 3084 2163 3084 1852.33 3084 1607.33 2985 1428 2787 1248.67 2589.67 1159 2320 1159 1978L1159 0 581 0 581 4863 1159 4863 1159 2956C1297 3166.67 1459 3324 1645 3428 1831.67 3532 2047 3584 2291 3584 2693 3584 2997 3459.67 3203 3211 3409.67 2962.33 3513 2596.33 3513 2113Z" id="DejaVuSans-68" transform="scale(0.015625 0.015625)"/><path d="M313 2009 1997 2009 1997 1497 313 1497 313 2009Z" id="DejaVuSans-2d" transform="scale(0.015625 0.015625)"/><path d="M1259 4147 1259 519 2022 519C2666 519 3137.33 664.667 3436 956 3734.67 1248 3884 1708.67 3884 2338 3884 2962.67 3734.67 3420.33 3436 3711 3137.33 4001.67 2666 4147 2022 4147L1259 4147ZM628 4666 1925 4666C2829 4666 3492.33 4478 3915 4102 4338.33 3726 4550 3138 4550 2338 4550 1533.33 4337.33 942.333 3912 565 3487.33 188.333 2825 0 1925 0L628 0 628 4666Z" id="DejaVuSans-44" transform="scale(0.015625 0.015625)"/></defs><use width="100%" height="100%" xlink:href="#DejaVuSans-61"></use><use x="61.2793" width="100%" height="100%" xlink:href="#DejaVuSans-6c"></use><use x="89.0625" width="100%" height="100%" xlink:href="#DejaVuSans-70"></use><use x="152.539" width="100%" height="100%" xlink:href="#DejaVuSans-68"></use><use x="215.918" width="100%" height="100%" xlink:href="#DejaVuSans-61"></use><use x="277.197" width="100%" height="100%" xlink:href="#DejaVuSans-2d"></use><use x="313.281" width="100%" height="100%" xlink:href="#DejaVuSans-44"></use><use x="390.283" width="100%" height="100%" xlink:href="#DejaVuSans-72"></use><use x="431.396" width="100%" height="100%" xlink:href="#DejaVuSans-69"></use><use x="459.18" width="100%" height="100%" xlink:href="#DejaVuSans-66"></use><use x="492.635" width="100%" height="100%" xlink:href="#DejaVuSans-74"></use></g></g><g id="legend_1"><g id="patch_7"><path d="M348 302.584 407.72 302.584C409.053 302.584 409.72 301.917 409.72 300.584L409.72 286.906C409.72 285.573 409.053 284.906 407.72 284.906L348 284.906C346.666 284.906 346 285.573 346 286.906L346 300.584C346 301.917 346.666 302.584 348 302.584Z" stroke="#CCCCCC" stroke-linejoin="miter" fill="#FFFFFF" opacity="0.8"/></g><g id="line2d_15"><path d="M350 293.004 360 293.004 370 293.004" stroke="#1F77B4" stroke-width="1.5" stroke-linecap="square" fill="none"/></g><g id="text_17"><g transform="matrix(0.1 0 0 -0.1 378 296.504)"><use width="100%" height="100%" xlink:href="#DejaVuSans-61"></use><use x="61.2793" width="100%" height="100%" xlink:href="#DejaVuSans-6c"></use><use x="89.0625" width="100%" height="100%" xlink:href="#DejaVuSans-70"></use><use x="152.539" width="100%" height="100%" xlink:href="#DejaVuSans-68"></use><use x="215.918" width="100%" height="100%" xlink:href="#DejaVuSans-61"></use></g></g></g></g></g></svg>